<svg width="1024" height="1024" viewBox="0 0 1024 1024" xmlns="http://www.w3.org/2000/svg">
  <!-- House Base (Slate) -->
  <rect x="212" y="460" width="600" height="440" fill="#708090" stroke="#556B8D" stroke-width="8"/>
  
  <!-- Roof (Brown) -->
  <polygon points="160,460 512,240 864,460" fill="#8B4513" stroke="#654321" stroke-width="8"/>
  
  <!-- Chimney (Stone Colored) -->
  <rect x="680" y="280" width="48" height="120" fill="#A0A0A0" stroke="#808080" stroke-width="6"/>
  
  <!-- Door (Soft Material Yellow) -->
  <rect x="452" y="660" width="120" height="240" fill="#FFF59D" stroke="#FBC02D" stroke-width="8" rx="12"/>
  
  <!-- Door Handle (Black) -->
  <circle cx="550" cy="780" r="8" fill="black" stroke="black" stroke-width="4"/>
  
  <!-- Windows (White fill, black outline) -->
  <!-- Left Window -->
  <rect x="260" y="520" width="100" height="100" fill="white" stroke="black" stroke-width="6"/>
  <line x1="310" y1="520" x2="310" y2="620" stroke="black" stroke-width="4"/>
  <line x1="260" y1="570" x2="360" y2="570" stroke="black" stroke-width="4"/>
  
  <!-- Right Window -->
  <rect x="664" y="520" width="100" height="100" fill="white" stroke="black" stroke-width="6"/>
  <line x1="714" y1="520" x2="714" y2="620" stroke="black" stroke-width="4"/>
  <line x1="664" y1="570" x2="764" y2="570" stroke="black" stroke-width="4"/>
  
  <!-- Lower Left Window -->
  <rect x="260" y="720" width="100" height="80" fill="white" stroke="black" stroke-width="6"/>
  <line x1="310" y1="720" x2="310" y2="800" stroke="black" stroke-width="4"/>
  <line x1="260" y1="760" x2="360" y2="760" stroke="black" stroke-width="4"/>
  
  <!-- Lower Right Window -->
  <rect x="664" y="720" width="100" height="80" fill="white" stroke="black" stroke-width="6"/>
  <line x1="714" y1="720" x2="714" y2="800" stroke="black" stroke-width="4"/>
  <line x1="664" y1="760" x2="764" y2="760" stroke="black" stroke-width="4"/>
  
  <!-- Foundation (Dark Red) -->
  <rect x="200" y="900" width="624" height="32" fill="#8B0000" stroke="#650000" stroke-width="6"/>
</svg>