<svg xmlns="http://www.w3.org/2000/svg" viewBox="0 0 100 100" width="100" height="100">
  <g fill="#fbbf24">
    <!-- Bulb -->
    <path d="M50 15 C35 15 25 25 25 40 C25 50 30 58 35 62 L35 75 C35 78 37 80 40 80 L60 80 C63 80 65 78 65 75 L65 62 C70 58 75 50 75 40 C75 25 65 15 50 15 Z"/>
    <!-- Base -->
    <rect x="40" y="80" width="20" height="5" fill="#9ca3af"/>
    <!-- Filament -->
    <path d="M40 30 Q50 25 60 30 M40 35 Q50 30 60 35 M40 40 Q50 35 60 40" stroke="#f59e0b" stroke-width="1.5" fill="none"/>
  </g>
</svg>